<svg width="51" height="51" viewBox="0 0 51 51" fill="none" xmlns="http://www.w3.org/2000/svg">
<path d="M28.0659 1.78644C27.1845 -0.595478 23.8155 -0.595482 22.9341 1.78644L17.6589 16.0425C17.3818 16.7914 16.7914 17.3818 16.0425 17.6589L1.78644 22.9341C-0.595482 23.8155 -0.595486 27.1845 1.78643 28.0659L16.0425 33.3411C16.7914 33.6182 17.3818 34.2086 17.6589 34.9575L22.9341 49.2136C23.8155 51.5955 27.1845 51.5955 28.0659 49.2136L33.3411 34.9575C33.6182 34.2086 34.2086 33.6182 34.9575 33.3411L49.2136 28.0659C51.5955 27.1845 51.5955 23.8155 49.2136 22.9341L34.9575 17.6589C34.2086 17.3818 33.6182 16.7914 33.3411 16.0425L28.0659 1.78644Z" fill="currentColor"/>
</svg>
